<svg id="email" xmlns="http://www.w3.org/2000/svg" width="100" height="100" viewBox="0 0 100 100">
  <defs>
    <style>
      .cls-1 {
        fill: #e3d9d6;
        stroke: #734432;
        stroke-width: 3px;
      }

      .cls-2 {
        fill: #fff;
      }

      .cls-3, .cls-4 {
        fill: #734432;
      }

      .cls-4 {
        font-size: 10px;
        font-family: LexendZetta-Regular, Lexend Zetta;
        opacity: 0;
      }

      .cls-5 {
        stroke: none;
      }

      .cls-6 {
        fill: none;
      }
    </style>
  </defs>
  <g id="Background" class="cls-1">
    <rect class="cls-5" width="100" height="100" rx="20"/>
    <rect class="cls-6" x="1.5" y="1.5" width="97" height="97" rx="18.5"/>
  </g>
  <rect id="white" class="cls-2" width="26" height="13" transform="translate(37 40)"/>
  <path id="Icon_material-email" data-name="Icon material-email" class="cls-3" d="M30,6H6A3,3,0,0,0,3.015,9L3,27a3.009,3.009,0,0,0,3,3H30a3.009,3.009,0,0,0,3-3V9A3.009,3.009,0,0,0,30,6Zm0,6L18,19.5,6,12V9l12,7.5L30,9Z" transform="translate(32 32)"/>
  <text id="email-2" data-name="email" class="cls-4" transform="translate(28 77)"><tspan x="0" y="0">email</tspan></text>
</svg>
