<svg xmlns="http://www.w3.org/2000/svg" width="100" height="100" viewBox="0 0 100 100">
  <g id="call" transform="translate(-982 -350)">
    <g id="Rectangle_37" data-name="Rectangle 37" transform="translate(982 350)" fill="#ede2d8" stroke="#a66f3f" stroke-width="3">
      <rect width="100" height="100" rx="20" stroke="none"/>
      <rect x="1.5" y="1.5" width="97" height="97" rx="18.5" fill="none"/>
    </g>
    <rect id="Rectangle_41" data-name="Rectangle 41" width="17" height="27" transform="translate(1019 387)" fill="#fff"/>
    <path id="Icon_material-phonelink-ring" data-name="Icon material-phonelink-ring" d="M30.15,11.55l-1.5,1.5a6.88,6.88,0,0,1,0,9.75l1.5,1.5a8.631,8.631,0,0,0,0-12.75ZM27,14.7l-1.5,1.5a2.926,2.926,0,0,1,0,3.45l1.5,1.5a4.526,4.526,0,0,0,0-6.45ZM21,1.5H6a3.009,3.009,0,0,0-3,3v27a3.009,3.009,0,0,0,3,3H21a3.009,3.009,0,0,0,3-3V4.5A3.009,3.009,0,0,0,21,1.5ZM21,30H6V6H21Z" transform="translate(1014 382.5)" fill="#a66f3f"/>
  </g>
</svg>
