<svg xmlns="http://www.w3.org/2000/svg" width="100" height="100" viewBox="0 0 100 100">
  <g id="linkedin" transform="translate(-1340 -350)">
    <g id="Rectangle_35" data-name="Rectangle 35" transform="translate(1340 350)" fill="#dbe1eb" stroke="#6f8abf" stroke-width="3">
      <rect width="100" height="100" rx="20" stroke="none"/>
      <rect x="1.5" y="1.5" width="97" height="97" rx="18.5" fill="none"/>
    </g>
    <path id="In" d="M-481.642-.321h-5.332V-17.5h5.121v2.341h.069a5.1,5.1,0,0,1,1.821-1.894,6.137,6.137,0,0,1,3.234-.881c2.517,0,4.226.771,5.225,2.356.812,1.289,1.175,3.086,1.175,5.827V-.323h-5.332V-8.675c0-1.923,0-4.556-2.777-4.556-2.823,0-3.2,2.228-3.2,4.408v8.5Zm-8.68,0h-5.346V-17.5h5.346V-.323Zm-2.673-19.528a3.1,3.1,0,0,1-3.094-3.1,3.1,3.1,0,0,1,3.094-3.094,3.1,3.1,0,0,1,3.1,3.094A3.1,3.1,0,0,1-492.995-19.85Z" transform="translate(1873 413)" fill="#fff" stroke="#fff" stroke-width="1"/>
    <path id="Icon_simple-linkedin" data-name="Icon simple-linkedin" d="M30.67,30.678H25.34V22.324c0-1.992-.041-4.556-2.778-4.556-2.779,0-3.2,2.167-3.2,4.409v8.5H14.026V13.5h5.121v2.342h.069a5.618,5.618,0,0,1,5.055-2.775c5.4,0,6.4,3.555,6.4,8.183v9.429ZM8.005,11.149a3.1,3.1,0,1,1,3.1-3.1A3.093,3.093,0,0,1,8.005,11.149Zm2.673,19.528H5.332V13.5h5.346ZM33.338,0H2.657A2.625,2.625,0,0,0,0,2.593V33.406A2.624,2.624,0,0,0,2.657,36H33.333A2.634,2.634,0,0,0,36,33.407V2.593A2.635,2.635,0,0,0,33.333,0Z" transform="translate(1372 382)" fill="#6f8abf"/>
  </g>
</svg>
