<svg xmlns="http://www.w3.org/2000/svg" width="142.121" height="157.818" viewBox="0 0 142.121 157.818">
  <defs>
    <style>
      .cls-1 {
        fill: rgba(111,138,191,0);
      }

      .cls-2, .cls-3, .cls-4, .cls-6 {
        fill: #6f8abf;
      }

      .cls-4 {
        stroke: rgba(0,0,0,0);
      }

      .cls-5, .cls-6 {
        stroke: none;
      }
    </style>
  </defs>
  <g id="logo" transform="translate(-1543.639 -129.183)">
    <g id="Group_13" data-name="Group 13" transform="translate(33.888 40.183)">
      <path id="Path_26" data-name="Path 26" class="cls-1" d="M1731.712-5440.566l-.062-47.2c0-7.79-2.513-10.239-7.537-15.2s-11.684-7.443-19.975-7.443a35.045,35.045,0,0,0-17.148,4.24,35.257,35.257,0,0,0-12.247,10.74,23.121,23.121,0,0,0-4.461,12.158v42.709l-19.409,10.333-.062-8.857v-101.065h-27.677L1609-5559h60.694c0,17.994.587,49.576.587,49.576s7.558-10.863,16.708-13.521a45.053,45.053,0,0,1,21.671-5.371q21.1,0,31.751,11.684c7.1,7.79,10.709,14.293,10.709,26.6v59.794Z" transform="translate(-99.249 5677.051)"/>
      <g id="Path_25" data-name="Path 25" class="cls-2" transform="translate(-116.006 5669.454)">
        <path class="cls-5" d="M 1763.16748046875 -5502.23779296875 C 1761.587158203125 -5504.70361328125 1759.689331054688 -5507.0126953125 1757.538940429688 -5509.3720703125 C 1750.376831054688 -5517.23291015625 1739.56982421875 -5521.21875 1725.418090820313 -5521.21875 C 1717.583618164063 -5521.21875 1710.212646484375 -5519.39208984375 1703.510009765625 -5515.7890625 C 1697.271850585938 -5512.43310546875 1691.8984375 -5508.11572265625 1687.51806640625 -5502.9423828125 L 1687.535278320313 -5504.2392578125 C 1689.7373046875 -5506.9736328125 1692.228271484375 -5509.4951171875 1694.941162109375 -5511.7353515625 C 1697.698974609375 -5514.0126953125 1700.762329101563 -5516.0625 1704.046142578125 -5517.828125 C 1707.322998046875 -5519.5908203125 1710.78662109375 -5520.93115234375 1714.340698242188 -5521.8115234375 C 1717.8935546875 -5522.69287109375 1721.641235351563 -5523.1396484375 1725.479614257813 -5523.1396484375 C 1732.423828125 -5523.1396484375 1738.5869140625 -5522.16748046875 1743.797607421875 -5520.24951171875 C 1746.394287109375 -5519.29443359375 1748.810424804688 -5518.08349609375 1750.978881835938 -5516.6513671875 C 1753.144775390625 -5515.2197265625 1755.124145507813 -5513.5263671875 1756.8623046875 -5511.619140625 C 1759.424682617188 -5508.806640625 1761.545532226563 -5505.65087890625 1763.16748046875 -5502.23779296875 Z"/>
        <path class="cls-6" d="M 1690.480834960938 -5506.8642578125 C 1694.20263671875 -5510.5166015625 1698.48583984375 -5513.65380859375 1703.273193359375 -5516.2294921875 C 1710.049560546875 -5519.8720703125 1717.500122070313 -5521.71875 1725.418090820313 -5521.71875 C 1739.366455078125 -5521.71875 1750.110595703125 -5517.87353515625 1757.36865234375 -5510.287109375 C 1757.082885742188 -5510.62353515625 1756.790771484375 -5510.95556640625 1756.49267578125 -5511.28271484375 C 1754.782470703125 -5513.1591796875 1752.834594726563 -5514.8251953125 1750.703369140625 -5516.23388671875 C 1748.567016601563 -5517.64501953125 1746.185546875 -5518.83837890625 1743.625 -5519.7802734375 C 1738.469604492188 -5521.677734375 1732.364624023438 -5522.6396484375 1725.479614257813 -5522.6396484375 C 1721.681762695313 -5522.6396484375 1717.974609375 -5522.19775390625 1714.4609375 -5521.326171875 C 1710.947387695313 -5520.4560546875 1707.523071289063 -5519.130859375 1704.282836914063 -5517.3876953125 C 1701.027954101563 -5515.6376953125 1697.992065429688 -5513.6064453125 1695.259521484375 -5511.35009765625 C 1693.574829101563 -5509.95849609375 1691.976440429688 -5508.4580078125 1690.480834960938 -5506.8642578125 M 1767.178100585938 -5490.8291015625 L 1767.176635742188 -5490.8291015625 C 1765.767944335938 -5498.37109375 1762.1572265625 -5503.5625 1757.16943359375 -5509.03515625 C 1750.104858398438 -5516.7890625 1739.422241210938 -5520.71875 1725.418090820313 -5520.71875 C 1717.667358398438 -5520.71875 1710.376098632813 -5518.912109375 1703.746704101563 -5515.3486328125 C 1697.130126953125 -5511.7890625 1691.495361328125 -5507.138671875 1686.999267578125 -5501.5263671875 L 1687.03759765625 -5504.41796875 C 1689.290283203125 -5507.234375 1691.8427734375 -5509.8251953125 1694.622802734375 -5512.12109375 C 1697.405517578125 -5514.4189453125 1700.496215820313 -5516.4873046875 1703.809326171875 -5518.2685546875 C 1707.122436523438 -5520.05078125 1710.625244140625 -5521.40625 1714.220458984375 -5522.296875 C 1717.81494140625 -5523.1884765625 1721.602905273438 -5523.6396484375 1725.479614257813 -5523.6396484375 C 1732.48193359375 -5523.6396484375 1738.703247070313 -5522.6572265625 1743.970336914063 -5520.71875 C 1746.603881835938 -5519.75 1749.054809570313 -5518.521484375 1751.254516601563 -5517.068359375 C 1753.454345703125 -5515.6142578125 1755.46533203125 -5513.89453125 1757.231811523438 -5511.9560546875 C 1759.865356445313 -5509.0654296875 1762.038208007813 -5505.8173828125 1763.690307617188 -5502.3017578125 C 1765.332885742188 -5498.8046875 1766.50634765625 -5494.9443359375 1767.178100585938 -5490.8291015625 Z"/>
      </g>
      <g id="Path_33" data-name="Path 33" class="cls-2" transform="translate(-139.222 5621.754)">
        <path class="cls-5" d="M 1691.339111328125 -5375.765625 L 1691.282592773438 -5383.79736328125 L 1691.282592773438 -5484.859375 L 1691.282592773438 -5485.359375 L 1690.782592773438 -5485.359375 L 1663.355102539063 -5485.359375 L 1661.749877929688 -5487.5 L 1694.20849609375 -5487.5 L 1694.20849609375 -5377.29345703125 L 1691.339111328125 -5375.765625 Z"/>
        <path class="cls-6" d="M 1691.833374023438 -5376.59521484375 L 1693.70849609375 -5377.59375 L 1693.70849609375 -5487 L 1662.749755859375 -5487 L 1663.605102539063 -5485.859375 L 1690.782592773438 -5485.859375 L 1691.782592773438 -5485.859375 L 1691.782592773438 -5484.859375 L 1691.782592773438 -5383.79638671875 L 1691.833374023438 -5376.59521484375 M 1690.844970703125 -5374.93603515625 L 1690.844970703125 -5374.9375 L 1690.782592773438 -5383.7939453125 L 1690.782592773438 -5484.859375 L 1663.105102539063 -5484.859375 L 1660.75 -5488 L 1694.70849609375 -5488 L 1694.70849609375 -5376.9931640625 L 1690.84619140625 -5374.9365234375 L 1690.844970703125 -5374.93603515625 Z"/>
      </g>
      <path id="Union_1" data-name="Union 1" class="cls-3" d="M30.259,46.058a34.676,34.676,0,0,1,12.352-2.874v2.874Zm-11.416,0v-17h23.77a44.773,44.773,0,0,0-6.878,2.993,56.205,56.205,0,0,0-9.156,6.125,52.575,52.575,0,0,0-7.561,7.672l-.172.215,0,0ZM0,29.051V0H18.843V29.051Z" transform="translate(1551.56 89)"/>
      <g id="Subtraction_1" data-name="Subtraction 1" class="cls-2" transform="translate(1622.343 171.906)">
        <path class="cls-5" d="M 11.94402313232422 64.98445129394531 L 10.61918640136719 64.27920532226563 L 10.55700302124023 17.37523460388184 C 10.55700302124023 13.23144626617432 9.867670059204102 10.56244087219238 8.491924285888672 8.249852180480957 C 9.116887092590332 9.005183219909668 9.653520584106445 9.755876541137695 10.10695362091064 10.55629444122314 C 11.3730936050415 12.79134464263916 11.91331386566162 15.30029487609863 11.91331386566162 18.94561386108398 L 11.94402313232422 42.54792404174805 L 11.94402313232422 64.98445129394531 Z"/>
        <path class="cls-6" d="M 11.44402313232422 64.15186309814453 L 11.44402313232422 42.54857635498047 L 11.41331386566162 18.94561386108398 C 11.41331386566162 16.77153396606445 11.21586894989014 15.04624366760254 10.80992984771729 13.56852149963379 C 10.97381114959717 14.69980239868164 11.05700302124023 15.95469284057617 11.05700302124023 17.37456512451172 L 11.11878871917725 63.97872924804688 L 11.44402313232422 64.15186309814453 M 12.44402313232422 65.81643676757813 L 12.44322299957275 65.81643676757813 L 12.44287300109863 65.81643676757813 L 10.11958312988281 64.57968139648438 L 10.05700302124023 17.37589454650879 C 10.05700302124023 9.618744850158691 7.559723377227783 7.152174472808838 2.584213495254517 2.238434553146362 L 2.519673585891724 2.174704551696777 C 1.727773427963257 1.392844557762146 0.8799934983253479 0.6608645915985107 3.473510787443956e-06 4.569091743178433e-06 C 1.761373519897461 1.028474569320679 3.401633501052856 2.289234638214111 4.875873565673828 3.744884490966797 L 4.937753677368164 3.806304454803467 C 9.914993286132813 8.720964431762695 12.41331386566162 11.18799495697021 12.41331386566162 18.94561386108398 L 12.44402313232422 42.54727554321289 L 12.44402313232422 65.81596374511719 L 12.44402313232422 65.81643676757813 Z"/>
      </g>
    </g>
    <g id="Group_14" data-name="Group 14" transform="translate(0 -22)">
      <path id="Path_39" data-name="Path 39" class="cls-4" d="M-68.436-6.432a2.6,2.6,0,0,1,2.022.744,2.74,2.74,0,0,1,.678,1.92V0h-1.236V-3.6a1.638,1.638,0,0,0-.48-1.218,1.732,1.732,0,0,0-1.272-.474,2.232,2.232,0,0,0-1.092.27,2.245,2.245,0,0,0-.78.684,1.451,1.451,0,0,0-.288.834V0H-72.12V-6.3h1.236v1.092a3.43,3.43,0,0,1,1.068-.882A2.868,2.868,0,0,1-68.436-6.432Zm13.26,3.276a3,3,0,0,1-.492,1.692A3.323,3.323,0,0,1-57.03-.3a4.456,4.456,0,0,1-1.962.42A4.484,4.484,0,0,1-60.966-.3a3.323,3.323,0,0,1-1.362-1.164,3,3,0,0,1-.492-1.692,3,3,0,0,1,.492-1.692,3.323,3.323,0,0,1,1.362-1.164,4.484,4.484,0,0,1,1.974-.42,4.456,4.456,0,0,1,1.962.42,3.323,3.323,0,0,1,1.362,1.164A3,3,0,0,1-55.176-3.156Zm-1.26,0a1.863,1.863,0,0,0-.318-1.11,2.213,2.213,0,0,0-.924-.762A3.08,3.08,0,0,0-58.992-5.3a3.08,3.08,0,0,0-1.314.276,2.257,2.257,0,0,0-.93.762,1.84,1.84,0,0,0-.324,1.11,1.846,1.846,0,0,0,.324,1.1,2.239,2.239,0,0,0,.93.768,3.08,3.08,0,0,0,1.314.276,3.08,3.08,0,0,0,1.314-.276,2.2,2.2,0,0,0,.924-.768A1.869,1.869,0,0,0-56.436-3.156Zm7.752-3.276a3.313,3.313,0,0,1,.7.072c.224.048.076-.028.2.06l.132,1.2a2.485,2.485,0,0,0-.581-.312c-.208-.048.035.312-.158.312a4.654,4.654,0,0,0-1.577.24,2,2,0,0,0-.75.7,1.693,1.693,0,0,0-.27.912V0h-1.248V-6.3h1.248v1.32a3,3,0,0,1,1-1.05A2.389,2.389,0,0,1-48.684-6.432ZM-40.356-4.6a3.872,3.872,0,0,0-1.08-.588,3.433,3.433,0,0,0-1.176-.228,3.455,3.455,0,0,0-1.152.174q-.492.174-.492.582a.659.659,0,0,0,.48.582,7.445,7.445,0,0,0,1.392.378,7.1,7.1,0,0,1,2,.612,1.278,1.278,0,0,1,.732,1.212A1.616,1.616,0,0,1-40.026-.8a2.347,2.347,0,0,1-1.02.684A4.127,4.127,0,0,1-42.468.12a4.058,4.058,0,0,1-3.18-1.164l.84-.768a3.1,3.1,0,0,0,2.292.9,3.362,3.362,0,0,0,1.146-.18.636.636,0,0,0,.5-.612q0-.372-.468-.552A8.227,8.227,0,0,0-42.78-2.6a11.334,11.334,0,0,1-1.452-.372,2.152,2.152,0,0,1-.906-.582,1.5,1.5,0,0,1-.354-1.05,1.388,1.388,0,0,1,.378-.966,2.415,2.415,0,0,1,1.032-.636,4.477,4.477,0,0,1,1.446-.222A5.445,5.445,0,0,1-41-6.174a3.156,3.156,0,0,1,1.314.75Zm7.74-1.7v1.2H-34.7V0H-35.94V-5.1H-37.7V-6.3h1.764V-8.136H-34.7V-6.3Zm6.564-.132a3.313,3.313,0,0,1,.7.072,1.484,1.484,0,0,1,.528.2l-.324,1.3a2.027,2.027,0,0,0-.528-.192,2.667,2.667,0,0,0-.6-.072,2.155,2.155,0,0,0-1.056.264,2,2,0,0,0-.75.7,1.693,1.693,0,0,0-.27.912V0H-29.6V-6.3h1.4l.2,1.116c.248-.432.226-.578.646-.846A2.389,2.389,0,0,1-26.052-6.432Zm10.068,3.648H-22.02a1.89,1.89,0,0,0,.93,1.29,3.677,3.677,0,0,0,1.95.474,3.573,3.573,0,0,0,1.284-.2,5.719,5.719,0,0,0,1.032-.528l.576.924h-.012a4.55,4.55,0,0,1-1.362.672A5.519,5.519,0,0,1-19.344.12,4.817,4.817,0,0,1-21.39-.294a3.347,3.347,0,0,1-1.392-1.14,2.848,2.848,0,0,1-.5-1.65,3.1,3.1,0,0,1,.516-1.782A3.309,3.309,0,0,1-21.372-6.03a4.68,4.68,0,0,1,1.92-.414,3.949,3.949,0,0,1,1.758.39,3.122,3.122,0,0,1,1.26,1.086,2.8,2.8,0,0,1,.462,1.584ZM-19.452-5.3a3.434,3.434,0,0,0-1.68.372A1.732,1.732,0,0,0-22-3.768h4.764v-.156a1.376,1.376,0,0,0-.738-.99A2.838,2.838,0,0,0-19.452-5.3Zm15.12-1.1a2.318,2.318,0,0,1,1.926.732,3.075,3.075,0,0,1,.582,1.968V0H-3.072V-3.552q0-1.716-1.536-1.716A2.466,2.466,0,0,0-5.748-5a2.071,2.071,0,0,0-.81.714,1.753,1.753,0,0,0-.294.978V0H-8.1V-3.576a1.765,1.765,0,0,0-.414-1.242,1.656,1.656,0,0,0-1.278-.45A2.051,2.051,0,0,0-10.836-5a2.115,2.115,0,0,0-.738.69,1.526,1.526,0,0,0-.27.828V0h-1.248V-6.3h1.248v1.02a3.372,3.372,0,0,1,1.092-.8,3.381,3.381,0,0,1,1.488-.324,2.7,2.7,0,0,1,1.41.348,1.832,1.832,0,0,1,.81,1.008A4.3,4.3,0,0,1-5.88-5.994,3.054,3.054,0,0,1-4.332-6.408Z" transform="translate(1666 298)"/>
      <path id="Path_40" data-name="Path 40" class="cls-4" d="M6.168-6.3v1.2H4.08V5.1H2.844V-5.1H1.08V-6.3H2.844V-8.136H4.08V-6.3ZM16.4-6.3V0H15.156V-1.056a3.1,3.1,0,0,1-1.11.822A3.6,3.6,0,0,1,12.468.12L10.759-.259,10.68-.3A3.033,3.033,0,0,1,9.468-1.464a3.307,3.307,0,0,1-.432-1.692,3.172,3.172,0,0,1,.456-1.692,3.152,3.152,0,0,1,1.266-1.164,3.916,3.916,0,0,1,1.83-.42,3.827,3.827,0,0,1,1.5.288,2.913,2.913,0,0,1,1.068.72V-6.3ZM12.756-1.02A2.818,2.818,0,0,0,14.022-1.3a2.129,2.129,0,0,0,.87-.762,1.989,1.989,0,0,0,.312-1.1,1.968,1.968,0,0,0-.312-1.086A2.129,2.129,0,0,0,14.022-5a2.818,2.818,0,0,0-1.266-.276A2.856,2.856,0,0,0,11.484-5a2.121,2.121,0,0,0-.876.762A1.968,1.968,0,0,0,10.3-3.156a2,2,0,0,0,.312,1.092,2.106,2.106,0,0,0,.876.768A2.856,2.856,0,0,0,12.756-1.02ZM29.448-6.408a2.318,2.318,0,0,1,1.926.732,3.075,3.075,0,0,1,.582,1.968V0H30.708V-3.552q0-1.716-1.536-1.716A2.466,2.466,0,0,0,28.032-5a2.071,2.071,0,0,0-.81.714,1.753,1.753,0,0,0-.294.978V-1H25.68V-3.576a1.765,1.765,0,0,0-.414-1.242,1.656,1.656,0,0,0-1.278-.45A2.051,2.051,0,0,0,22.944-5a2.115,2.115,0,0,0-.738.69,1.526,1.526,0,0,0-.27.828V0H20.688V-6.3h1.248v1.02a3.372,3.372,0,0,1,1.092-.8,3.381,3.381,0,0,1,1.488-.324,2.7,2.7,0,0,1,1.41.348,1.832,1.832,0,0,1,.81,1.008A4.3,4.3,0,0,1,27.9-5.994,3.054,3.054,0,0,1,29.448-6.408Zm15.528,0a2.318,2.318,0,0,1,1.926.732,3.075,3.075,0,0,1,.582,1.968V0L46.378,1.225l-.142-4.777q0-1.716-1.536-1.716A2.466,2.466,0,0,0,43.56-5a2.071,2.071,0,0,0-.81.714,1.753,1.753,0,0,0-.294.978V0H41.208V-3.576a1.765,1.765,0,0,0-.414-1.242,1.656,1.656,0,0,0-1.278-.45A2.051,2.051,0,0,0,38.472-5a2.115,2.115,0,0,0-.738.69,1.526,1.526,0,0,0-.27.828V0H36.216V-6.3h1.248v1.02a3.372,3.372,0,0,1,1.092-.8,3.381,3.381,0,0,1,1.488-.324,2.7,2.7,0,0,1,1.41.348,1.832,1.832,0,0,1,.81,1.008,4.3,4.3,0,0,1,1.164-.942A3.054,3.054,0,0,1,44.976-6.408ZM58.728-6.3,55.56-.012,54.354,2.334h-1.32L54.156.312,50.712-6.3h1.452l1.9,3.876A11.139,11.139,0,0,1,54.8-.8q.408-1,.732-1.656L57.288-6.3Z" transform="translate(1596.45 292.9)"/>
    </g>
  </g>
</svg>
