<svg xmlns="http://www.w3.org/2000/svg" width="100" height="100" viewBox="0 0 100 100">
  <g id="text" transform="translate(-624 -350)">
    <g id="Rectangle_36" data-name="Rectangle 36" transform="translate(624 350)" fill="#eeeee7" stroke="#a8aa89" stroke-width="3">
      <rect width="100" height="100" rx="20" stroke="none"/>
      <rect x="1.5" y="1.5" width="97" height="97" rx="18.5" fill="none"/>
    </g>
    <rect id="Rectangle_40" data-name="Rectangle 40" width="19" height="10" transform="translate(665 392)" fill="#fff"/>
    <path id="Icon_material-textsms" data-name="Icon material-textsms" d="M30,3H6A3,3,0,0,0,3.015,6L3,33l6-6H30a3.009,3.009,0,0,0,3-3V6A3.009,3.009,0,0,0,30,3ZM13.5,16.5h-3v-3h3Zm6,0h-3v-3h3Zm6,0h-3v-3h3Z" transform="translate(656 382)" fill="#a8aa89"/>
  </g>
</svg>
